<svg width="37" height="37" viewBox="0 0 37 37" fill="none" xmlns="http://www.w3.org/2000/svg">
<path opacity="0.2" d="M33.5313 15.6094C33.5313 16.1811 33.3617 16.74 33.0441 17.2153C32.7265 17.6907 32.275 18.0612 31.7468 18.28C31.2186 18.4987 30.6374 18.556 30.0767 18.4445C29.516 18.3329 29.0009 18.0576 28.5966 17.6534C28.1924 17.2491 27.9171 16.734 27.8055 16.1733C27.694 15.6126 27.7513 15.0314 27.97 14.5032C28.1888 13.975 28.5593 13.5235 29.0347 13.2059C29.51 12.8883 30.0689 12.7188 30.6406 12.7188C31.0202 12.7187 31.3961 12.7935 31.7468 12.9388C32.0975 13.0841 32.4162 13.297 32.6846 13.5654C32.953 13.8338 33.166 14.1525 33.3112 14.5032C33.4565 14.8539 33.5313 15.2298 33.5313 15.6094ZM9.25 15.6094C9.25 15.0377 9.08047 14.4788 8.76284 14.0034C8.44522 13.5281 7.99376 13.1576 7.46557 12.9388C6.93738 12.72 6.35617 12.6628 5.79544 12.7743C5.23472 12.8858 4.71966 13.1611 4.3154 13.5654C3.91113 13.9697 3.63583 14.4847 3.52429 15.0454C3.41276 15.6062 3.47 16.1874 3.68879 16.7156C3.90757 17.2438 4.27807 17.6952 4.75343 18.0128C5.22879 18.3305 5.78766 18.5 6.35938 18.5C6.73898 18.5 7.11487 18.4252 7.46557 18.28C7.81628 18.1347 8.13494 17.9218 8.40336 17.6534C8.67178 17.3849 8.8847 17.0663 9.02997 16.7156C9.17524 16.3649 9.25 15.989 9.25 15.6094ZM13.2969 11.5625C13.8686 11.5625 14.4275 11.393 14.9028 11.0753C15.3782 10.7577 15.7487 10.3063 15.9675 9.77807C16.1862 9.24988 16.2435 8.66867 16.132 8.10794C16.0204 7.54722 15.7451 7.03216 15.3409 6.6279C14.9366 6.22363 14.4215 5.94833 13.8608 5.83679C13.3001 5.72526 12.7189 5.7825 12.1907 6.00129C11.6625 6.22007 11.211 6.59057 10.8934 7.06593C10.5758 7.54129 10.4063 8.10017 10.4063 8.67188C10.4062 9.05148 10.481 9.42737 10.6263 9.77807C10.7716 10.1288 10.9845 10.4474 11.2529 10.7159C11.5213 10.9843 11.84 11.1972 12.1907 11.3425C12.5414 11.4877 12.9173 11.5625 13.2969 11.5625ZM23.7031 11.5625C24.2748 11.5625 24.8337 11.393 25.3091 11.0753C25.7844 10.7577 26.1549 10.3063 26.3737 9.77807C26.5925 9.24988 26.6497 8.66867 26.5382 8.10794C26.4267 7.54722 26.1514 7.03216 25.7471 6.6279C25.3428 6.22363 24.8278 5.94833 24.2671 5.83679C23.7063 5.72526 23.1251 5.7825 22.5969 6.00129C22.0687 6.22007 21.6173 6.59057 21.2997 7.06593C20.982 7.54129 20.8125 8.10017 20.8125 8.67188C20.8125 9.05148 20.8873 9.42737 21.0325 9.77807C21.1778 10.1288 21.3907 10.4474 21.6591 10.7159C21.9276 10.9843 22.2462 11.1972 22.5969 11.3425C22.9476 11.4877 23.3235 11.5625 23.7031 11.5625ZM26.4833 22.5257C25.0331 21.7202 23.9596 20.3747 23.4963 18.7818L23.4961 18.7819C23.1817 17.7001 22.5246 16.7496 21.6237 16.0733C20.7227 15.3969 19.6266 15.0313 18.5 15.0313C17.3734 15.0313 16.2773 15.3969 15.3763 16.0733C14.4754 16.7496 13.8183 17.7001 13.5039 18.7819L13.5037 18.7818C13.0404 20.3747 11.9669 21.7202 10.5167 22.5257C9.47203 23.092 8.68533 24.0385 8.31967 25.1691C7.954 26.2997 8.03742 27.5277 8.55261 28.5984C9.06781 29.6692 9.97528 30.5006 11.0869 30.9204C12.1986 31.3402 13.4291 31.3162 14.5235 30.8533C17.0715 29.8084 19.9284 29.8084 22.4765 30.8533C23.571 31.3167 24.8018 31.3411 25.9138 30.9214C27.0257 30.5017 27.9335 29.6701 28.4488 28.5991C28.9641 27.5281 29.0475 26.2999 28.6815 25.1691C28.3155 24.0383 27.5284 23.0917 26.4833 22.5257Z" fill="#9A9A9A"/>
<path d="M30.6406 11.5625C29.8402 11.5625 29.0578 11.7998 28.3923 12.2445C27.7268 12.6892 27.2081 13.3212 26.9018 14.0607C26.5955 14.8002 26.5154 15.6139 26.6715 16.3989C26.8277 17.1839 27.2131 17.905 27.7791 18.4709C28.345 19.0369 29.0661 19.4223 29.8511 19.5785C30.6361 19.7346 31.4498 19.6545 32.1893 19.3482C32.9288 19.0419 33.5608 18.5232 34.0055 17.8577C34.4502 17.1922 34.6875 16.4098 34.6875 15.6094C34.6863 14.5364 34.2595 13.5078 33.5009 12.7491C32.7422 11.9905 31.7136 11.5637 30.6406 11.5625ZM30.6406 17.3438C30.2976 17.3438 29.9623 17.242 29.6771 17.0515C29.3918 16.8609 29.1695 16.59 29.0383 16.2731C28.907 15.9562 28.8727 15.6075 28.9396 15.271C29.0065 14.9346 29.1717 14.6255 29.4142 14.383C29.6568 14.1404 29.9658 13.9752 30.3023 13.9083C30.6387 13.8414 30.9874 13.8758 31.3043 14.007C31.6213 14.1383 31.8921 14.3606 32.0827 14.6458C32.2733 14.931 32.375 15.2663 32.375 15.6094C32.3745 16.0692 32.1916 16.51 31.8664 16.8352C31.5413 17.1603 31.1005 17.3432 30.6406 17.3438ZM10.4063 15.6094C10.4063 14.809 10.1689 14.0266 9.72423 13.3611C9.27955 12.6955 8.64752 12.1768 7.90805 11.8706C7.16858 11.5643 6.35489 11.4841 5.56987 11.6403C4.78485 11.7964 4.06377 12.1818 3.4978 12.7478C2.93184 13.3138 2.54641 14.0349 2.39026 14.8199C2.23411 15.6049 2.31425 16.4186 2.62055 17.158C2.92685 17.8975 3.44555 18.5296 4.11105 18.9742C4.77656 19.4189 5.55898 19.6562 6.35938 19.6562C7.43231 19.655 8.46095 19.2283 9.21962 18.4696C9.9783 17.7109 10.405 16.6823 10.4063 15.6094ZM6.35938 17.3438C6.01635 17.3438 5.68103 17.242 5.39581 17.0515C5.11059 16.8609 4.88829 16.59 4.75702 16.2731C4.62575 15.9562 4.59141 15.6075 4.65833 15.271C4.72525 14.9346 4.89043 14.6255 5.13299 14.383C5.37555 14.1404 5.68458 13.9752 6.02102 13.9083C6.35745 13.8414 6.70618 13.8758 7.02309 14.007C7.34001 14.1383 7.61088 14.3606 7.80146 14.6458C7.99203 14.931 8.09375 15.2663 8.09375 15.6094C8.09324 16.0692 7.91034 16.51 7.5852 16.8352C7.26005 17.1603 6.8192 17.3432 6.35938 17.3438ZM13.2969 12.7188C14.0973 12.7188 14.8797 12.4814 15.5452 12.0367C16.2107 11.5921 16.7294 10.96 17.0357 10.2205C17.342 9.48108 17.4221 8.66739 17.266 7.88237C17.1098 7.09735 16.7244 6.37627 16.1585 5.8103C15.5925 5.24434 14.8714 4.85891 14.0864 4.70276C13.3014 4.54661 12.4877 4.62675 11.7482 4.93305C11.0087 5.23935 10.3767 5.75805 9.93202 6.42355C9.48735 7.08906 9.25 7.87148 9.25 8.67188C9.2512 9.7448 9.67796 10.7734 10.4366 11.5321C11.1953 12.2908 12.2239 12.7175 13.2969 12.7188ZM13.2969 6.9375C13.6399 6.9375 13.9752 7.03922 14.2604 7.2298C14.5457 7.42037 14.768 7.69124 14.8992 8.00816C15.0305 8.32508 15.0648 8.6738 14.9979 9.01024C14.931 9.34667 14.7658 9.65571 14.5233 9.89826C14.2807 10.1408 13.9717 10.306 13.6352 10.3729C13.2988 10.4398 12.9501 10.4055 12.6332 10.2742C12.3162 10.143 12.0454 9.92066 11.8548 9.63544C11.6642 9.35023 11.5625 9.0149 11.5625 8.67188C11.563 8.21205 11.7459 7.7712 12.0711 7.44606C12.3962 7.12091 12.8371 6.93802 13.2969 6.9375ZM23.7031 12.7188C24.5035 12.7188 25.2859 12.4814 25.9515 12.0367C26.617 11.5921 27.1357 10.96 27.442 10.2205C27.7482 9.48108 27.8284 8.66739 27.6722 7.88237C27.5161 7.09735 27.1307 6.37627 26.5647 5.8103C25.9987 5.24434 25.2776 4.85891 24.4926 4.70276C23.7076 4.54661 22.8939 4.62675 22.1545 4.93305C21.415 5.23935 20.783 5.75805 20.3383 6.42355C19.8936 7.08906 19.6563 7.87148 19.6563 8.67188C19.6575 9.7448 20.0842 10.7734 20.8429 11.5321C21.6016 12.2908 22.6302 12.7175 23.7031 12.7188ZM23.7031 6.9375C24.0462 6.9375 24.3815 7.03922 24.6667 7.2298C24.9519 7.42037 25.1742 7.69124 25.3055 8.00816C25.4368 8.32508 25.4711 8.6738 25.4042 9.01024C25.3373 9.34667 25.1721 9.65571 24.9295 9.89826C24.687 10.1408 24.3779 10.306 24.0415 10.3729C23.7051 10.4398 23.3563 10.4055 23.0394 10.2742C22.7225 10.143 22.4516 9.92066 22.261 9.63544C22.0705 9.35023 21.9688 9.0149 21.9688 8.67188C21.9693 8.21205 22.1522 7.7712 22.4773 7.44606C22.8025 7.12091 23.2433 6.93802 23.7031 6.9375ZM27.0406 21.5127C25.8568 20.8577 24.9813 19.7596 24.6064 18.4596C24.2222 17.1374 23.4192 15.9756 22.318 15.1488C21.2169 14.3221 19.8772 13.8751 18.5002 13.875C17.1233 13.8749 15.7835 14.3218 14.6823 15.1484C13.5811 15.9751 12.7779 17.1368 12.3936 18.459C12.0202 19.7573 11.1469 20.8543 9.96546 21.5093C8.6607 22.2166 7.67787 23.3986 7.22042 24.8105C6.76297 26.2223 6.86592 27.7561 7.50797 29.0942C8.15001 30.4322 9.28199 31.4722 10.6696 31.9988C12.0572 32.5254 13.5941 32.4983 14.9622 31.9231C17.2233 30.9886 19.7623 30.9867 22.0248 31.9177C23.3922 32.497 24.93 32.5279 26.3196 32.0042C27.7092 31.4804 28.844 30.4421 29.4889 29.1044C30.1338 27.7667 30.2392 26.2322 29.7834 24.8188C29.3276 23.4055 28.3455 22.2216 27.0406 21.5127ZM24.2813 30.0625C23.8117 30.0631 23.3469 29.9681 22.9151 29.7835C20.0828 28.615 16.9028 28.6169 14.0719 29.7888C13.25 30.1366 12.3257 30.1543 11.491 29.8383C10.6564 29.5222 9.97562 28.8967 9.59021 28.0918C9.20481 27.2868 9.14441 26.3643 9.42155 25.5159C9.6987 24.6676 10.2921 23.9586 11.0784 23.5364C11.93 23.0661 12.6806 22.4326 13.2873 21.6721C13.894 20.9116 14.3449 20.0391 14.6143 19.1042C14.859 18.2629 15.3701 17.5237 16.0708 16.9978C16.7716 16.4718 17.6241 16.1875 18.5003 16.1875C19.3765 16.1875 20.2289 16.4719 20.9296 16.998C21.6303 17.524 22.1414 18.2632 22.386 19.1046C22.6553 20.0394 23.1062 20.9119 23.7128 21.6723C24.3195 22.4328 25.07 23.0662 25.9216 23.5364L25.9319 23.5421C26.6107 23.9094 27.1477 24.4927 27.4577 25.1995C27.7678 25.9063 27.8333 26.6964 27.6439 27.4446C27.4545 28.1929 27.0209 28.8566 26.4119 29.3307C25.8029 29.8049 25.0531 30.0624 24.2813 30.0625Z" fill="#9A9A9A"/>
</svg>
