<svg width="31" height="27" viewBox="0 0 31 27" fill="none" xmlns="http://www.w3.org/2000/svg">
<path d="M30.5313 10.6094C30.5313 11.1811 30.3617 11.74 30.0441 12.2153C29.7265 12.6907 29.275 13.0612 28.7468 13.28C28.2186 13.4987 27.6374 13.556 27.0767 13.4445C26.516 13.3329 26.0009 13.0576 25.5966 12.6534C25.1924 12.2491 24.9171 11.734 24.8055 11.1733C24.694 10.6126 24.7513 10.0314 24.97 9.50318C25.1888 8.97499 25.5593 8.52354 26.0347 8.20591C26.51 7.88828 27.0689 7.71875 27.6406 7.71875C28.0202 7.71875 28.3961 7.79352 28.7468 7.93878C29.0975 8.08405 29.4162 8.29697 29.6846 8.56539C29.953 8.83381 30.166 9.15247 30.3112 9.50318C30.4565 9.85389 30.5313 10.2298 30.5313 10.6094ZM6.25 10.6094C6.25 10.0377 6.08047 9.47879 5.76284 9.00343C5.44522 8.52807 4.99376 8.15757 4.46557 7.93879C3.93738 7.72 3.35617 7.66276 2.79544 7.77429C2.23472 7.88583 1.71966 8.16113 1.3154 8.5654C0.911135 8.96966 0.635829 9.48472 0.524294 10.0454C0.412758 10.6062 0.470002 11.1874 0.688787 11.7156C0.907572 12.2438 1.27807 12.6952 1.75343 13.0128C2.22879 13.3305 2.78766 13.5 3.35938 13.5C3.73898 13.5 4.11487 13.4252 4.46557 13.28C4.81628 13.1347 5.13494 12.9218 5.40336 12.6534C5.67178 12.3849 5.8847 12.0663 6.02997 11.7156C6.17524 11.3649 6.25 10.989 6.25 10.6094ZM10.2969 6.5625C10.8686 6.5625 11.4275 6.39297 11.9028 6.07534C12.3782 5.75772 12.7487 5.30626 12.9675 4.77807C13.1862 4.24988 13.2435 3.66867 13.132 3.10794C13.0204 2.54722 12.7451 2.03216 12.3409 1.6279C11.9366 1.22363 11.4215 0.948329 10.8608 0.836794C10.3001 0.725258 9.71887 0.782502 9.19068 1.00129C8.66249 1.22007 8.21103 1.59057 7.89341 2.06593C7.57578 2.54129 7.40625 3.10017 7.40625 3.67188C7.40625 4.05148 7.48102 4.42737 7.62628 4.77807C7.77155 5.12878 7.98447 5.44744 8.25289 5.71586C8.52131 5.98428 8.83997 6.1972 9.19068 6.34247C9.54139 6.48774 9.91727 6.5625 10.2969 6.5625ZM20.7031 6.5625C21.2748 6.5625 21.8337 6.39297 22.3091 6.07534C22.7844 5.75772 23.1549 5.30626 23.3737 4.77807C23.5925 4.24988 23.6497 3.66867 23.5382 3.10794C23.4267 2.54722 23.1514 2.03216 22.7471 1.6279C22.3428 1.22363 21.8278 0.948329 21.2671 0.836794C20.7063 0.725258 20.1251 0.782502 19.5969 1.00129C19.0687 1.22007 18.6173 1.59057 18.2997 2.06593C17.982 2.54129 17.8125 3.10017 17.8125 3.67188C17.8125 4.05148 17.8873 4.42737 18.0325 4.77807C18.1778 5.12878 18.3907 5.44744 18.6591 5.71586C18.9276 5.98428 19.2462 6.1972 19.5969 6.34247C19.9476 6.48774 20.3235 6.5625 20.7031 6.5625ZM23.4833 17.5257C22.0331 16.7202 20.9596 15.3747 20.4963 13.7818L20.4961 13.7819C20.1817 12.7001 19.5246 11.7496 18.6237 11.0733C17.7227 10.3969 16.6266 10.0313 15.5 10.0313C14.3734 10.0313 13.2773 10.3969 12.3763 11.0733C11.4754 11.7496 10.8183 12.7001 10.5039 13.7819L10.5037 13.7818C10.0404 15.3747 8.96692 16.7202 7.51669 17.5257C6.47203 18.092 5.68533 19.0385 5.31967 20.1691C4.954 21.2997 5.03742 22.5277 5.55261 23.5984C6.06781 24.6692 6.97528 25.5006 8.08692 25.9204C9.19855 26.3402 10.4291 26.3162 11.5235 25.8533C14.0715 24.8084 16.9284 24.8084 19.4765 25.8533C20.571 26.3167 21.8018 26.3411 22.9138 25.9214C24.0257 25.5017 24.9335 24.6701 25.4488 23.5991C25.9641 22.5281 26.0475 21.2999 25.6815 20.1691C25.3155 19.0383 24.5284 18.0917 23.4833 17.5257Z" fill="#EB339B"/>
</svg>
